<svg id="jQueryLogo" xmlns="http://www.w3.org/2000/svg" viewBox="0 0 512 512" width="512" height="512">
	<style>
		tspan { white-space:pre }
		.shp0 { fill: #D6D1E6 } 
	</style>
	<g id="Layer_6">
		<g id="Layer">
			<path id="Layer" class="shp0" d="M34.32,126.05c-44.88,64.5 -39.29,148.41 -5.01,216.95c0.82,1.64 1.67,3.26 2.51,4.88c0.54,1.02 1.04,2.07 1.6,3.08c0.31,0.61 0.67,1.2 1,1.78c0.59,1.1 1.18,2.13 1.79,3.2c1.06,1.88 2.16,3.74 3.27,5.61c0.62,1.02 1.23,2.05 1.87,3.07c1.24,2 2.5,3.98 3.8,5.94c0.54,0.84 1.06,1.68 1.62,2.49c1.79,2.67 3.61,5.33 5.5,7.94c0.05,0.06 0.1,0.14 0.16,0.2c0.3,0.42 0.63,0.83 0.93,1.25c1.63,2.25 3.31,4.47 5.01,6.67c0.63,0.8 1.26,1.6 1.89,2.4c1.52,1.91 3.06,3.8 4.63,5.69c0.59,0.7 1.18,1.42 1.77,2.11c2.11,2.48 4.26,4.95 6.46,7.38c0.04,0.04 0.09,0.09 0.13,0.14c0.09,0.1 0.17,0.17 0.25,0.27c2.14,2.34 4.34,4.64 6.56,6.93c0.69,0.7 1.39,1.42 2.1,2.12c1.72,1.73 3.47,3.43 5.24,5.13c0.72,0.68 1.43,1.38 2.14,2.03c2.36,2.22 4.75,4.4 7.18,6.53c0.04,0.04 0.07,0.08 0.11,0.09c0.41,0.37 0.84,0.72 1.25,1.06c2.14,1.86 4.33,3.7 6.52,5.51c0.89,0.72 1.8,1.44 2.7,2.15c1.8,1.44 3.61,2.85 5.44,4.25c0.97,0.74 1.93,1.48 2.91,2.21c2.02,1.48 4.05,2.94 6.1,4.37c0.75,0.54 1.47,1.06 2.22,1.58c0.21,0.15 0.4,0.3 0.61,0.44c1.95,1.33 3.93,2.63 5.92,3.92c0.85,0.57 1.7,1.15 2.56,1.71c3.05,1.93 6.14,3.83 9.27,5.68c0.85,0.48 1.71,0.96 2.56,1.44c2.3,1.33 4.61,2.63 6.96,3.9c1.27,0.68 2.57,1.33 3.85,1.98c1.66,0.87 3.3,1.75 4.98,2.59c0.38,0.19 0.78,0.38 1.16,0.56c0.67,0.32 1.35,0.65 2.04,0.99c2.61,1.25 5.24,2.47 7.89,3.65c0.57,0.25 1.11,0.5 1.67,0.74c3.04,1.33 6.11,2.61 9.21,3.83c0.74,0.3 1.49,0.58 2.24,0.88c2.87,1.1 5.77,2.19 8.68,3.22c0.37,0.13 0.73,0.25 1.09,0.37c3.2,1.12 6.43,2.16 9.69,3.17c0.78,0.23 1.56,0.48 2.34,0.7c3.31,1 6.58,2.19 10,2.82c217.02,39.57 280.06,-130.42 280.06,-130.42c-52.94,68.98 -146.92,87.17 -235.97,66.91c-3.38,-0.76 -6.65,-1.81 -9.94,-2.79c-0.84,-0.25 -1.66,-0.5 -2.48,-0.75c-3.21,-0.99 -6.4,-2.02 -9.57,-3.11c-0.43,-0.15 -0.87,-0.31 -1.31,-0.47c-2.84,-1 -5.64,-2.05 -8.44,-3.13c-0.79,-0.31 -1.58,-0.61 -2.36,-0.93c-3.06,-1.21 -6.11,-2.47 -9.11,-3.79c-0.62,-0.26 -1.21,-0.54 -1.82,-0.81c-2.58,-1.17 -5.14,-2.34 -7.69,-3.57c-0.73,-0.36 -1.47,-0.7 -2.22,-1.07c-2,-0.97 -3.97,-2.01 -5.94,-3.02c-1.32,-0.69 -2.66,-1.36 -3.97,-2.08c-2.41,-1.29 -4.77,-2.63 -7.12,-4c-0.8,-0.45 -1.6,-0.88 -2.41,-1.34c-3.13,-1.84 -6.22,-3.75 -9.28,-5.69c-0.84,-0.54 -1.67,-1.11 -2.5,-1.66c-2.22,-1.43 -4.43,-2.88 -6.6,-4.39c-0.72,-0.48 -1.42,-1.01 -2.13,-1.49c-2.1,-1.48 -4.18,-2.99 -6.24,-4.51c-0.93,-0.69 -1.86,-1.4 -2.76,-2.09c-1.89,-1.45 -3.77,-2.9 -5.63,-4.4c-0.84,-0.67 -1.68,-1.34 -2.51,-2.01c-2.37,-1.95 -4.7,-3.9 -7.01,-5.9c-0.24,-0.22 -0.5,-0.42 -0.77,-0.64c-2.5,-2.2 -4.95,-4.45 -7.37,-6.71c-0.71,-0.67 -1.39,-1.32 -2.08,-2c-1.8,-1.7 -3.56,-3.43 -5.3,-5.19c-0.69,-0.69 -1.39,-1.38 -2.08,-2.07c-2.21,-2.27 -4.38,-4.56 -6.5,-6.88c-0.11,-0.11 -0.22,-0.22 -0.32,-0.34c-2.25,-2.46 -4.44,-4.97 -6.59,-7.5c-0.58,-0.69 -1.15,-1.37 -1.73,-2.05c-1.6,-1.93 -3.19,-3.89 -4.74,-5.87c-0.59,-0.7 -1.17,-1.44 -1.74,-2.16c-1.86,-2.42 -3.69,-4.84 -5.48,-7.3c-49.44,-67.42 -67.2,-160.43 -27.69,-236.81" />
			<path id="Layer" class="shp0" d="M173.62,71.71c-32.45,46.71 -30.69,109.22 -5.38,158.61c4.25,8.28 9.02,16.31 14.36,23.96c4.86,6.97 10.25,15.26 16.7,20.85c2.34,2.58 4.79,5.09 7.28,7.56c0.63,0.65 1.28,1.26 1.92,1.9c2.42,2.34 4.89,4.66 7.44,6.9c0.1,0.09 0.2,0.19 0.3,0.26c0.03,0.03 0.05,0.04 0.07,0.08c2.82,2.47 5.73,4.85 8.69,7.19c0.66,0.5 1.31,1.02 1.97,1.54c2.96,2.27 5.99,4.51 9.09,6.64c0.09,0.06 0.17,0.13 0.26,0.21c1.37,0.94 2.76,1.82 4.15,2.73c0.67,0.43 1.3,0.89 1.97,1.3c2.21,1.42 4.46,2.8 6.74,4.13c0.32,0.2 0.64,0.36 0.95,0.55c1.97,1.13 3.96,2.25 5.96,3.33c0.7,0.4 1.41,0.74 2.12,1.11c1.38,0.72 2.76,1.45 4.17,2.16c0.2,0.1 0.42,0.19 0.63,0.28c2.86,1.41 5.75,2.77 8.69,4.05c0.63,0.28 1.28,0.52 1.92,0.79c2.35,1 4.73,1.98 7.12,2.89c1.01,0.38 2.04,0.75 3.05,1.12c2.17,0.8 4.35,1.54 6.54,2.28c0.99,0.31 1.96,0.64 2.96,0.94c3.12,0.96 6.2,2.19 9.46,2.73c167.56,27.76 206.25,-101.25 206.25,-101.25c-34.87,50.21 -102.41,74.19 -174.47,55.48c-3.2,-0.84 -6.35,-1.76 -9.49,-2.74c-0.96,-0.29 -1.9,-0.61 -2.85,-0.92c-2.23,-0.72 -4.44,-1.49 -6.64,-2.29c-1.01,-0.36 -2.01,-0.73 -3,-1.11c-2.41,-0.93 -4.79,-1.88 -7.14,-2.88c-0.64,-0.28 -1.3,-0.52 -1.93,-0.81c-2.96,-1.29 -5.87,-2.65 -8.74,-4.06c-1.48,-0.73 -2.93,-1.49 -4.38,-2.23c-0.84,-0.44 -1.69,-0.87 -2.53,-1.31c-1.87,-1.01 -3.72,-2.06 -5.55,-3.13c-0.43,-0.25 -0.88,-0.48 -1.32,-0.75c-2.27,-1.33 -4.51,-2.69 -6.72,-4.1c-0.68,-0.44 -1.34,-0.91 -2.02,-1.36c-1.46,-0.95 -2.92,-1.91 -4.35,-2.88c-3.09,-2.12 -6.1,-4.36 -9.06,-6.63c-0.68,-0.54 -1.37,-1.06 -2.04,-1.6c-31.55,-24.91 -56.54,-58.94 -68.43,-97.53c-12.46,-40.03 -9.78,-84.95 11.81,-121.41" />
			<path id="Layer" class="shp0" d="M290.77,31.12c-19.13,28.15 -21.01,63.12 -7.74,94.22c14,33.01 42.68,58.9 76.17,71.17c1.38,0.51 2.76,0.98 4.16,1.45c0.61,0.19 1.21,0.4 1.83,0.57c1.97,0.62 3.93,1.34 5.97,1.73c92.52,17.88 117.62,-47.48 124.3,-57.1c-21.99,31.65 -58.93,39.25 -104.25,28.25c-3.58,-0.88 -7.52,-2.17 -10.97,-3.4c-4.43,-1.57 -8.78,-3.37 -13.02,-5.41c-8.05,-3.87 -15.72,-8.56 -22.83,-13.93c-40.56,-30.78 -65.76,-89.49 -39.29,-137.3" />
		</g>
	</g>
</svg>